<?xml version="1.0" encoding="UTF-8" standalone="no"?>
<!-- Created with Inkscape (http://www.inkscape.org/) -->

<svg
   xmlns:dc="http://purl.org/dc/elements/1.1/"
   xmlns:cc="http://creativecommons.org/ns#"
   xmlns:rdf="http://www.w3.org/1999/02/22-rdf-syntax-ns#"
   xmlns:svg="http://www.w3.org/2000/svg"
   xmlns="http://www.w3.org/2000/svg"
   xmlns:sodipodi="http://sodipodi.sourceforge.net/DTD/sodipodi-0.dtd"
   xmlns:inkscape="http://www.inkscape.org/namespaces/inkscape"
   width="64"
   height="64"
   viewBox="0 0 16.933333 16.933334"
   version="1.1"
   id="svg8"
   inkscape:export-filename="/Users/kivutar/go/src/github.com/libretro/ludo/assets/key-arrows.png"
   inkscape:export-xdpi="384"
   inkscape:export-ydpi="384"
   inkscape:version="0.92.2 5c3e80d, 2017-08-06"
   sodipodi:docname="key-arrows.svg">
  <defs
     id="defs2" />
  <sodipodi:namedview
     id="base"
     pagecolor="#ffffff"
     bordercolor="#666666"
     borderopacity="1.0"
     inkscape:pageopacity="0.0"
     inkscape:pageshadow="2"
     inkscape:zoom="11.6875"
     inkscape:cx="18.062552"
     inkscape:cy="38.33923"
     inkscape:document-units="mm"
     inkscape:current-layer="layer1"
     showgrid="true"
     units="px"
     inkscape:pagecheckerboard="true"
     inkscape:window-width="1680"
     inkscape:window-height="925"
     inkscape:window-x="0"
     inkscape:window-y="1"
     inkscape:window-maximized="1">
    <inkscape:grid
       type="xygrid"
       id="grid815"
       spacingx="1.0583333"
       spacingy="1.0583333"
       empspacing="4" />
  </sodipodi:namedview>
  <metadata
     id="metadata5">
    <rdf:RDF>
      <cc:Work
         rdf:about="">
        <dc:format>image/svg+xml</dc:format>
        <dc:type
           rdf:resource="http://purl.org/dc/dcmitype/StillImage" />
        <dc:title></dc:title>
      </cc:Work>
    </rdf:RDF>
  </metadata>
  <g
     inkscape:label="Layer 1"
     inkscape:groupmode="layer"
     id="layer1"
     transform="translate(0,-280.06665)">
    <path
       style="fill:#ffffff;fill-opacity:1;stroke:none;stroke-width:0.19883437;stroke-miterlimit:4;stroke-dasharray:none;stroke-opacity:1"
       d="m 6.5484374,285.09372 c -0.1099343,0 -0.1984375,0.0885 -0.1984375,0.19845 v 2.77812 c 0,0.10993 0.088503,0.19844 0.1984375,0.19844 h 2.7781252 c 0.1099343,0 0.1984377,-0.0885 0.1984377,-0.19844 v -2.77812 c 0,-0.10994 -0.088503,-0.19845 -0.1984377,-0.19845 z m 1.3890626,1.19063 0.396875,0.79375 h -0.79375 z"
       id="rect817-9"
       inkscape:connector-curvature="0" />
    <path
       inkscape:connector-curvature="0"
       style="fill:#ffffff;fill-opacity:1;stroke:none;stroke-width:0.19883452;stroke-miterlimit:4;stroke-dasharray:none;stroke-opacity:1"
       d="m 2.9104167,291.5099 c 0,0.10994 0.0885,0.19844 0.1984352,0.19844 h 2.7781296 c 0.1099351,0 0.1984352,-0.0885 0.1984352,-0.19844 v -2.77812 c 0,-0.10994 -0.0885,-0.19844 -0.1984352,-0.19844 H 3.1088519 c -0.1099351,0 -0.1984352,0.0885 -0.1984352,0.19844 z m 1.1906259,-1.38906 0.7937481,-0.39687 v 0.79374 z"
       id="rect817-9-3" />
    <path
       inkscape:connector-curvature="0"
       style="fill:#ffffff;fill-opacity:1;stroke:none;stroke-width:0.19883451;stroke-miterlimit:4;stroke-dasharray:none;stroke-opacity:1"
       d="m 9.3265667,291.70834 c 0.109935,0 0.1984351,-0.0885 0.1984351,-0.19844 v -2.77812 c 0,-0.10994 -0.0885,-0.19844 -0.1984351,-0.19844 H 6.5484369 c -0.109935,0 -0.1984351,0.0885 -0.1984351,0.19844 v 2.77812 c 0,0.10994 0.0885,0.19844 0.1984351,0.19844 z M 7.937498,290.51771 7.5406277,289.72397 h 0.7937481 z"
       id="rect817-9-3-8" />
    <path
       inkscape:connector-curvature="0"
       style="fill:#ffffff;fill-opacity:1;stroke:none;stroke-width:0.19883452;stroke-miterlimit:4;stroke-dasharray:none;stroke-opacity:1"
       d="m 12.964583,288.73177 c 0,-0.10994 -0.0885,-0.19844 -0.198435,-0.19844 H 9.9880183 c -0.109935,0 -0.198435,0.0885 -0.198435,0.19844 v 2.77812 c 0,0.10994 0.0885,0.19844 0.198435,0.19844 h 2.7781297 c 0.109934,0 0.198435,-0.0885 0.198435,-0.19844 z m -1.190626,1.38906 -0.793748,0.39687 v -0.79374 z"
       id="rect817-9-3-8-0" />
  </g>
</svg>
