<?xml version="1.0" encoding="UTF-8" standalone="no"?>
<!-- Created with Inkscape (http://www.inkscape.org/) -->

<svg
   xmlns:dc="http://purl.org/dc/elements/1.1/"
   xmlns:cc="http://creativecommons.org/ns#"
   xmlns:rdf="http://www.w3.org/1999/02/22-rdf-syntax-ns#"
   xmlns:svg="http://www.w3.org/2000/svg"
   xmlns="http://www.w3.org/2000/svg"
   xmlns:sodipodi="http://sodipodi.sourceforge.net/DTD/sodipodi-0.dtd"
   xmlns:inkscape="http://www.inkscape.org/namespaces/inkscape"
   width="64"
   height="64"
   viewBox="0 0 16.933333 16.933334"
   version="1.1"
   id="svg945"
   sodipodi:docname="key-shift.svg"
   inkscape:export-filename="/Users/kivutar/ludo/assets/key-shift.png"
   inkscape:export-xdpi="384"
   inkscape:export-ydpi="384"
   inkscape:version="0.92.2 5c3e80d, 2017-08-06">
  <defs
     id="defs939" />
  <sodipodi:namedview
     id="base"
     pagecolor="#ffffff"
     bordercolor="#666666"
     borderopacity="1.0"
     inkscape:pageopacity="0.0"
     inkscape:pageshadow="2"
     inkscape:zoom="23.375"
     inkscape:cx="29.025346"
     inkscape:cy="33.253608"
     inkscape:document-units="mm"
     inkscape:current-layer="layer1"
     showgrid="true"
     units="px"
     inkscape:pagecheckerboard="true"
     inkscape:window-width="1680"
     inkscape:window-height="925"
     inkscape:window-x="0"
     inkscape:window-y="1"
     inkscape:window-maximized="1">
    <inkscape:grid
       type="xygrid"
       id="grid1490"
       spacingx="1.0583333"
       spacingy="1.0583333"
       empspacing="4" />
  </sodipodi:namedview>
  <metadata
     id="metadata942">
    <rdf:RDF>
      <cc:Work
         rdf:about="">
        <dc:format>image/svg+xml</dc:format>
        <dc:type
           rdf:resource="http://purl.org/dc/dcmitype/StillImage" />
        <dc:title></dc:title>
      </cc:Work>
    </rdf:RDF>
  </metadata>
  <g
     inkscape:label="Layer 1"
     inkscape:groupmode="layer"
     id="layer1"
     transform="translate(0,-280.06665)">
    <path
       style="fill:#ffffff;fill-opacity:1;stroke:none;stroke-width:0.60119843;stroke-miterlimit:4;stroke-dasharray:none;stroke-opacity:1"
       d="M 22 20 C 20.892 20 20 20.892 20 22 L 20 42 C 20 43.108 20.892 44 22 44 L 42 44 C 43.108 44 44 43.108 44 42 L 44 22 C 44 20.892 43.108 20 42 20 L 22 20 z M 32 26.943359 L 37.810547 32.751953 L 34.746094 32.751953 L 34.746094 36.753906 L 29.246094 36.753906 L 29.246094 32.751953 L 26.191406 32.751953 L 32 26.943359 z M 32 29.0625 L 29.816406 31.246094 L 30 31.246094 L 30.753906 31.246094 L 30.753906 35.248047 L 33.248047 35.248047 L 33.248047 31.246094 L 34.185547 31.246094 L 32 29.0625 z "
       transform="matrix(0.26458333,0,0,0.26458333,0,280.06665)"
       id="rect1492" />
  </g>
</svg>
