<?xml version="1.0" encoding="UTF-8" standalone="no"?>
<!-- Created with Inkscape (http://www.inkscape.org/) -->

<svg
   xmlns:dc="http://purl.org/dc/elements/1.1/"
   xmlns:cc="http://creativecommons.org/ns#"
   xmlns:rdf="http://www.w3.org/1999/02/22-rdf-syntax-ns#"
   xmlns:svg="http://www.w3.org/2000/svg"
   xmlns="http://www.w3.org/2000/svg"
   xmlns:sodipodi="http://sodipodi.sourceforge.net/DTD/sodipodi-0.dtd"
   xmlns:inkscape="http://www.inkscape.org/namespaces/inkscape"
   width="1280"
   height="720"
   viewBox="0 0 338.66665 190.50001"
   version="1.1"
   id="svg8"
   inkscape:version="0.92.2 5c3e80d, 2017-08-06"
   sodipodi:docname="ludos.svg"
   inkscape:export-filename="/Users/kivutar/LudOS/distributions/LudOS/LudOS_40x40.png"
   inkscape:export-xdpi="20"
   inkscape:export-ydpi="20">
  <defs
     id="defs2" />
  <sodipodi:namedview
     id="base"
     pagecolor="#ffffff"
     bordercolor="#666666"
     borderopacity="1.0"
     inkscape:pageopacity="0"
     inkscape:pageshadow="2"
     inkscape:zoom="0.5"
     inkscape:cx="596.76623"
     inkscape:cy="606.49351"
     inkscape:document-units="px"
     inkscape:current-layer="layer1"
     showgrid="true"
     units="px"
     inkscape:window-width="1680"
     inkscape:window-height="925"
     inkscape:window-x="0"
     inkscape:window-y="1"
     inkscape:window-maximized="1"
     inkscape:pagecheckerboard="true">
    <inkscape:grid
       type="xygrid"
       id="grid815"
       empspacing="4"
       spacingy="0.26458334"
       spacingx="0.26458334" />
  </sodipodi:namedview>
  <metadata
     id="metadata5">
    <rdf:RDF>
      <cc:Work
         rdf:about="">
        <dc:format>image/svg+xml</dc:format>
        <dc:type
           rdf:resource="http://purl.org/dc/dcmitype/StillImage" />
        <dc:title></dc:title>
      </cc:Work>
    </rdf:RDF>
  </metadata>
  <g
     inkscape:label="Layer 1"
     inkscape:groupmode="layer"
     id="layer1"
     transform="translate(0,-106.49999)">
    <rect
       style="opacity:1;fill:none;fill-opacity:1;stroke:none;stroke-width:6.86474752;stroke-linecap:round;stroke-linejoin:round;stroke-miterlimit:4;stroke-dasharray:none;stroke-dashoffset:0;stroke-opacity:1"
       id="rect842"
       width="50.799999"
       height="50.799999"
       x="143.93333"
       y="176.34999" />
    <path
       style="opacity:1;fill:#ffffff;fill-opacity:1;stroke:none;stroke-width:0.52916664px;stroke-linecap:butt;stroke-linejoin:miter;stroke-opacity:1"
       d="m 173.32999,185.40162 c -2.94214,1.4726 -4.52908,3.81982 -4.52789,6.82334 -2.64513,-2e-4 -5.27319,-0.3866 -7.93543,-1.05832 -4.23333,0 -6.87917,1.5875 -7.40833,4.23332 0,0 -2.11667,9.17456 -2.11667,11.64168 0,2.46712 1.5875,3.70416 3.175,4.23332 3.175,1.05834 4.7625,-1.58748 6.87917,-3.70416 h 7.9375 7.9375 c 2.11666,2.11668 3.70416,4.7625 6.87916,3.70416 1.5875,-0.52916 3.175,-1.7662 3.175,-4.23332 0,-0.1122 -0.009,-0.25238 -0.0176,-0.39068 -2.22958,-0.31112 -4.80527,-1.26148 -7.06416,-3.10472 a 3.1749998,3.1749998 0 0 1 -1.38493,0.3204 3.1749998,3.1749998 0 0 1 -3.175,-3.175 3.1749998,3.1749998 0 0 1 0.75241,-2.05156 c -0.89047,-1.90236 -1.45535,-4.18074 -1.53169,-6.85954 -1.68232,0.28672 -3.3586,0.44442 -5.04156,0.44442 h -0.001 c -0.001,-2.64928 1.2501,-4.53086 3.94085,-5.87768 z m 4.47001,5.76502 c -0.4391,0.1108 -0.87717,0.2111 -1.31464,0.30592 0.0364,2.47818 0.5046,4.5395 1.25987,6.24768 a 3.1749998,3.1749998 0 0 1 1.11311,-0.2036 3.1749998,3.1749998 0 0 1 3.175,3.175 3.1749998,3.1749998 0 0 1 -0.56431,1.80556 c 1.81042,1.4062 3.86732,2.19544 5.64617,2.51768 -0.52318,-3.59364 -1.90686,-9.61492 -1.90686,-9.61492 -0.52917,-2.64582 -3.175,-4.23332 -7.40834,-4.23332 z m -18.52083,7.4073 h 1.05834 v 1.58956 h 1.58646 v 1.05834 c -0.52813,-10e-4 -1.05764,0 -1.58646,0 v 1.58646 h -1.05834 v -1.58646 h -1.58543 v -1.05834 h 1.58543 z m 19.57917,0.001 a 0.52916665,0.52916665 0 0 0 -0.52917,0.52918 0.52916665,0.52916665 0 0 0 0.52917,0.52916 0.52916665,0.52916665 0 0 0 0.52916,-0.52916 0.52916665,0.52916665 0 0 0 -0.52916,-0.52918 z m -1.5875,1.5875 a 0.52916665,0.52916665 0 0 0 -0.52917,0.52918 0.52916665,0.52916665 0 0 0 0.52917,0.52916 0.52916665,0.52916665 0 0 0 0.52916,-0.52916 0.52916665,0.52916665 0 0 0 -0.52916,-0.52918 z m 3.175,0 a 0.52916665,0.52916665 0 0 0 -0.52917,0.52918 0.52916665,0.52916665 0 0 0 0.52917,0.52916 0.52916665,0.52916665 0 0 0 0.52916,-0.52916 0.52916665,0.52916665 0 0 0 -0.52916,-0.52918 z m -12.87777,1.1927 c 0.57785,0.51838 1.13712,0.76934 1.69499,0.78134 0.0229,5.2e-4 0.0472,-0.006 0.0703,-0.006 0.0231,3e-4 0.0474,0.006 0.0703,0.006 0.55787,-0.012 1.11714,-0.26296 1.69499,-0.78134 l 0.70279,0.78858 c -0.70983,0.6368 -1.51396,1.02696 -2.37504,1.04696 -0.031,7.4e-4 -0.062,-0.002 -0.093,-0.004 -0.031,2.6e-4 -0.0621,0.004 -0.093,0.004 -0.86109,-0.02 -1.66522,-0.41016 -2.37505,-1.04696 z m 11.29027,0.3948 a 0.52916665,0.52916665 0 0 0 -0.52917,0.52918 0.52916665,0.52916665 0 0 0 0.52917,0.52916 0.52916665,0.52916665 0 0 0 0.52916,-0.52916 0.52916665,0.52916665 0 0 0 -0.52916,-0.52918 z"
       id="path817"
       inkscape:connector-curvature="0" />
    <rect
       style="fill:#ffffff;fill-opacity:1;stroke:none;stroke-width:0.26458332;stroke-opacity:1"
       id="rect835"
       width="0"
       height="25.400009"
       x="16.933332"
       y="267.36667" />
  </g>
</svg>
