<?xml version="1.0" encoding="UTF-8" standalone="no"?>
<!-- Created with Inkscape (http://www.inkscape.org/) -->

<svg
   xmlns:dc="http://purl.org/dc/elements/1.1/"
   xmlns:cc="http://creativecommons.org/ns#"
   xmlns:rdf="http://www.w3.org/1999/02/22-rdf-syntax-ns#"
   xmlns:svg="http://www.w3.org/2000/svg"
   xmlns="http://www.w3.org/2000/svg"
   xmlns:sodipodi="http://sodipodi.sourceforge.net/DTD/sodipodi-0.dtd"
   xmlns:inkscape="http://www.inkscape.org/namespaces/inkscape"
   width="128"
   height="128"
   viewBox="0 0 33.866666 33.866668"
   version="1.1"
   id="svg8"
   inkscape:version="0.92.2 5c3e80d, 2017-08-06"
   sodipodi:docname="ludo-illus.svg"
   inkscape:export-filename="/Users/kivutar/Desktop/schema.png"
   inkscape:export-xdpi="768.00006"
   inkscape:export-ydpi="768.00006">
  <defs
     id="defs2" />
  <sodipodi:namedview
     id="base"
     pagecolor="#ffffff"
     bordercolor="#666666"
     borderopacity="1.0"
     inkscape:pageopacity="0.0"
     inkscape:pageshadow="2"
     inkscape:zoom="5.84375"
     inkscape:cx="76.494076"
     inkscape:cy="62.834945"
     inkscape:document-units="mm"
     inkscape:current-layer="layer1"
     showgrid="true"
     units="px"
     inkscape:window-width="1685"
     inkscape:window-height="923"
     inkscape:window-x="-3"
     inkscape:window-y="0"
     inkscape:window-maximized="0">
    <inkscape:grid
       type="xygrid"
       id="grid10"
       spacingx="1.0583333"
       spacingy="1.0583333"
       empspacing="4" />
  </sodipodi:namedview>
  <metadata
     id="metadata5">
    <rdf:RDF>
      <cc:Work
         rdf:about="">
        <dc:format>image/svg+xml</dc:format>
        <dc:type
           rdf:resource="http://purl.org/dc/dcmitype/StillImage" />
        <dc:title />
      </cc:Work>
    </rdf:RDF>
  </metadata>
  <g
     inkscape:label="Layer 1"
     inkscape:groupmode="layer"
     id="layer1"
     transform="translate(0,-263.13332)">
    <path
       style="opacity:1;fill:none;fill-opacity:0.99526068;stroke:#000000;stroke-width:0.50000001;stroke-linecap:round;stroke-linejoin:round;stroke-miterlimit:4;stroke-dasharray:none;stroke-dashoffset:0;stroke-opacity:1"
       d="M 36 58 L 36 60 C 36 61.107901 36.892099 62 38 62 L 42 62 C 43.107901 62 44 61.107901 44 60 L 44 58 L 36 58 z "
       transform="matrix(0.26458333,0,0,0.26458333,0,263.13332)"
       id="rect821" />
    <rect
       style="opacity:1;fill:none;fill-opacity:1;stroke:#000000;stroke-width:0.13229167;stroke-linecap:round;stroke-linejoin:round;stroke-miterlimit:4;stroke-dasharray:none;stroke-dashoffset:0;stroke-opacity:1"
       id="rect819"
       width="4.2333331"
       height="2.1166666"
       x="8.4666662"
       y="278.47919"
       ry="7.6783854e-06" />
    <path
       style="opacity:1;fill:#000000;fill-opacity:1;stroke:#000000;stroke-width:0.50000001;stroke-linecap:round;stroke-linejoin:round;stroke-miterlimit:4;stroke-dasharray:none;stroke-dashoffset:0;stroke-opacity:1"
       d="M 20 30 L 20 54 L 60 54 L 60 30 L 20 30 z M 36 35.072266 L 44 35.072266 L 48 42 L 44 48.927734 L 36 48.927734 L 32 42 L 36 35.072266 z "
       transform="matrix(0.26458333,0,0,0.26458333,0,263.13332)"
       id="rect823" />
    <path
       style="opacity:1;fill:none;fill-opacity:1;stroke:#000000;stroke-width:0.13229167;stroke-linecap:round;stroke-linejoin:round;stroke-miterlimit:4;stroke-dasharray:none;stroke-dashoffset:0;stroke-opacity:1;paint-order:stroke fill markers"
       d="m 13.758333,285.88751 v -3.175 c -1.058334,-1e-5 -2.116667,-0.52918 -3.175,-0.52918 -1.0583333,0 -2.1166666,0.52917 -3.1749998,0.52918 l -1e-7,3.17499"
       id="rect825"
       inkscape:connector-curvature="0"
       sodipodi:nodetypes="ccccc" />
    <path
       style="opacity:1;fill:none;fill-opacity:1;stroke:#000000;stroke-width:0.13229167;stroke-linecap:round;stroke-linejoin:round;stroke-miterlimit:4;stroke-dasharray:none;stroke-dashoffset:0;stroke-opacity:1"
       d="m 7.4083332,285.8875 c 1.0583332,0 2.116637,-0.47013 3.1563348,-0.49913 1.076998,-0.03 2.135331,0.49913 3.193665,0.49913 v 1.05833 H 7.4083332 Z"
       id="rect827"
       inkscape:connector-curvature="0"
       sodipodi:nodetypes="cscccc" />
    <path
       style="opacity:1;fill:none;fill-opacity:1;stroke:#000000;stroke-width:0.13229167;stroke-linecap:round;stroke-linejoin:round;stroke-miterlimit:4;stroke-dasharray:none;stroke-dashoffset:0;stroke-opacity:1;paint-order:stroke fill markers"
       d="m 4.2333332,290.65 v 1.5875 1.05833 h 1.0583333 l 0.5291667,-1.05833 h 1.0583333 l 0.5291666,1.05833 H 8.4666665 V 292.2375 290.65 Z"
       id="rect829"
       inkscape:connector-curvature="0"
       sodipodi:nodetypes="ccccccccccc" />
    <path
       style="fill:none;stroke:#000000;stroke-width:0.13229167;stroke-linecap:round;stroke-linejoin:round;stroke-miterlimit:4;stroke-dasharray:none;stroke-opacity:1"
       d="m 9.5249996,286.41667 v 2.11666 H 6.3499998 V 290.65"
       id="path835"
       inkscape:connector-curvature="0"
       sodipodi:nodetypes="cccc" />
    <path
       sodipodi:nodetypes="ccccccccccc"
       inkscape:connector-curvature="0"
       id="path838"
       d="m 12.700001,290.65 v 1.5875 1.05833 h 1.058334 l 0.529167,-1.05833 h 1.058334 l 0.529167,1.05833 h 1.058334 V 292.2375 290.65 Z"
       style="opacity:1;fill:none;fill-opacity:1;stroke:#000000;stroke-width:0.13229167;stroke-linecap:round;stroke-linejoin:round;stroke-miterlimit:4;stroke-dasharray:none;stroke-dashoffset:0;stroke-opacity:1;paint-order:stroke fill markers" />
    <path
       style="fill:none;stroke:#000000;stroke-width:0.13229167;stroke-linecap:round;stroke-linejoin:round;stroke-miterlimit:4;stroke-dasharray:none;stroke-opacity:1"
       d="M 7.4083331,283.77083 H 5.2916663 l 2e-7,-3.175 h 2.1166666 v -2.11667"
       id="path840"
       inkscape:connector-curvature="0"
       sodipodi:nodetypes="ccc" />
    <path
       style="fill:none;stroke:#000000;stroke-width:0.13229167;stroke-linecap:round;stroke-linejoin:round;stroke-miterlimit:4;stroke-dasharray:none;stroke-opacity:1"
       d="m 11.641666,286.41667 v 2.11666 h 3.175 V 290.65"
       id="path842"
       inkscape:connector-curvature="0"
       sodipodi:nodetypes="cccc" />
    <path
       style="fill:none;stroke:#000000;stroke-width:0.13229168;stroke-linecap:round;stroke-linejoin:round;stroke-miterlimit:4;stroke-dasharray:0.13229168,0.39687505;stroke-dashoffset:0;stroke-opacity:1"
       d="m 21.166665,283.77082 h 4.233334 v -4.23333"
       id="path870"
       inkscape:connector-curvature="0"
       sodipodi:nodetypes="ccc" />
    <circle
       style="opacity:1;fill:none;fill-opacity:0.99526068;stroke:#000000;stroke-width:0.13229167;stroke-linecap:round;stroke-linejoin:round;stroke-miterlimit:4;stroke-dasharray:none;stroke-dashoffset:0;stroke-opacity:1;paint-order:stroke fill markers"
       id="path1048"
       cx="19.049999"
       cy="283.7709"
       r="2.1166666" />
    <path
       style="opacity:1;fill:none;fill-opacity:1;stroke:#000000;stroke-width:0.13229167;stroke-linecap:round;stroke-linejoin:round;stroke-miterlimit:4;stroke-dasharray:none;stroke-dashoffset:0;stroke-opacity:1;paint-order:stroke fill markers"
       id="path872"
       sodipodi:type="arc"
       sodipodi:cx="25.400005"
       sodipodi:cy="279.53751"
       sodipodi:rx="1.0583333"
       sodipodi:ry="1.0583333"
       sodipodi:start="3.6651914"
       sodipodi:end="5.7595865"
       d="m 24.483462,279.00834 a 1.0583333,1.0583333 0 0 1 0.916543,-0.52917 1.0583333,1.0583333 0 0 1 0.916544,0.52917"
       sodipodi:open="true" />
    <path
       style="opacity:1;fill:none;fill-opacity:1;stroke:#000000;stroke-width:0.13229167;stroke-linecap:round;stroke-linejoin:round;stroke-miterlimit:4;stroke-dasharray:none;stroke-dashoffset:0;stroke-opacity:1;paint-order:stroke fill markers"
       id="path874"
       sodipodi:type="arc"
       sodipodi:cx="25.400002"
       sodipodi:cy="279.53751"
       sodipodi:rx="2.1166666"
       sodipodi:ry="2.1166666"
       sodipodi:start="3.6651914"
       sodipodi:end="5.7595865"
       sodipodi:open="true"
       d="m 23.566914,278.47917 a 2.1166666,2.1166666 0 0 1 1.833087,-1.05833 2.1166666,2.1166666 0 0 1 1.833088,1.05833" />
    <path
       style="opacity:1;fill:none;fill-opacity:1;stroke:#000000;stroke-width:0.13229167;stroke-linecap:round;stroke-linejoin:round;stroke-miterlimit:4;stroke-dasharray:none;stroke-dashoffset:0;stroke-opacity:1;paint-order:stroke fill markers"
       id="path876"
       sodipodi:type="arc"
       sodipodi:cx="25.400002"
       sodipodi:cy="279.00833"
       sodipodi:rx="3.175"
       sodipodi:ry="2.6458333"
       sodipodi:start="3.6651914"
       sodipodi:end="5.7595865"
       sodipodi:open="true"
       d="m 22.650371,277.68541 a 3.175,2.6458333 0 0 1 2.74963,-1.32291 3.175,2.6458333 0 0 1 2.749631,1.32291" />
    <path
       style="opacity:1;fill:none;fill-opacity:1;stroke:#000000;stroke-width:0.13229167;stroke-linecap:round;stroke-linejoin:round;stroke-miterlimit:4;stroke-dasharray:none;stroke-dashoffset:0;stroke-opacity:1;paint-order:stroke fill markers"
       d="m 25.4,268.95416 a 2.6458332,2.6458332 0 0 0 -2.608626,2.22312 1.5875,1.5875 0 0 0 -0.566374,-0.10646 1.5875,1.5875 0 0 0 -1.5875,1.5875 1.5875,1.5875 0 0 0 1.5875,1.5875 h 3.175 2.645833 a 2.1166665,2.1166665 0 0 0 2.116667,-2.11666 2.1166665,2.1166665 0 0 0 -2.116667,-2.11667 2.1166665,2.1166665 0 0 0 -0.489375,0.0599 A 2.6458332,2.6458332 0 0 0 25.4,268.95412 Z"
       id="path878"
       inkscape:connector-curvature="0" />
    <path
       style="fill:#000000;fill-opacity:1;stroke:#000000;stroke-width:0.13229167;stroke-linecap:butt;stroke-linejoin:miter;stroke-miterlimit:4;stroke-dasharray:none;stroke-opacity:1"
       d="m 23.01875,288.00415 -2.38125,1.5875 v 3.175 l 2.38125,1.5875 h 4.7625 l 2.38125,-1.5875 v -3.175 l -2.38125,-1.5875 h -0.264583 v 1.05834 1.05833 1.05833 c -3e-6,0.3781 -0.403437,0.72769 -1.058334,0.91674 -0.654899,0.18905 -1.461767,0.18905 -2.116666,0 -0.654897,-0.18905 -1.058331,-0.53864 -1.058334,-0.91674 v -1.05833 -1.05833 -1.05834 z"
       id="path890"
       inkscape:connector-curvature="0" />
    <path
       style="fill:none;stroke:#000000;stroke-width:0.13229167;stroke-linecap:round;stroke-linejoin:miter;stroke-miterlimit:4;stroke-dasharray:none;stroke-opacity:1"
       d="m 23.283332,272.12916 c 1.336351,1.27091 2.731299,1.54568 4.233333,0"
       id="path1027"
       inkscape:connector-curvature="0"
       sodipodi:nodetypes="cc" />
    <path
       style="fill:none;stroke:#000000;stroke-width:0.13229167;stroke-linecap:round;stroke-linejoin:round;stroke-miterlimit:4;stroke-dasharray:none;stroke-opacity:1"
       d="m 24.341665,271.07082 v 10e-6"
       id="path1029"
       inkscape:connector-curvature="0"
       sodipodi:nodetypes="cc" />
    <path
       style="fill:none;stroke:#000000;stroke-width:0.13229167;stroke-linecap:round;stroke-linejoin:round;stroke-miterlimit:4;stroke-dasharray:none;stroke-opacity:1"
       d="m 26.458332,271.07083 v 0"
       id="path1031"
       inkscape:connector-curvature="0"
       sodipodi:nodetypes="cc" />
    <path
       style="fill:none;stroke:#000000;stroke-width:0.13229167;stroke-linecap:round;stroke-linejoin:round;stroke-miterlimit:4;stroke-dasharray:none;stroke-opacity:1"
       d="m 17.991666,283.77085 1.058333,-1.05833 1.058333,1.05833 -1.058333,1.05833 z"
       id="path1042"
       inkscape:connector-curvature="0" />
    <path
       style="fill:none;stroke:#000000;stroke-width:0.13229167;stroke-linecap:round;stroke-linejoin:round;stroke-miterlimit:4;stroke-dasharray:none;stroke-opacity:1"
       d="m 17.991666,282.71252 h 2.116666"
       id="path1044"
       inkscape:connector-curvature="0" />
    <path
       style="fill:none;stroke:#000000;stroke-width:0.13229167;stroke-linecap:round;stroke-linejoin:round;stroke-miterlimit:4;stroke-dasharray:none;stroke-opacity:1"
       d="m 17.991666,284.82918 h 2.116666"
       id="path1046"
       inkscape:connector-curvature="0" />
    <path
       style="fill:none;stroke:#000000;stroke-width:0.13229167;stroke-linecap:round;stroke-linejoin:round;stroke-miterlimit:4;stroke-dasharray:0.13229167,0.396875;stroke-dashoffset:0;stroke-opacity:1"
       d="m 10.583333,270.01249 v -4.23333 h 14.816666 v 3.175"
       id="path1050"
       inkscape:connector-curvature="0" />
    <path
       style="fill:none;stroke:#000000;stroke-width:0.13229168;stroke-linecap:round;stroke-linejoin:miter;stroke-miterlimit:4;stroke-dasharray:0.13229168,0.39687505;stroke-dashoffset:0;stroke-opacity:1"
       d="m 13.758333,283.77082 h 3.175"
       id="path1343"
       inkscape:connector-curvature="0" />
    <ellipse
       ry="1.0583333"
       rx="2.1166666"
       cy="288.00418"
       cx="25.399986"
       id="ellipse1372"
       style="opacity:1;fill:none;fill-opacity:0.99526068;stroke:#000000;stroke-width:0.13229167;stroke-linecap:round;stroke-linejoin:round;stroke-miterlimit:4;stroke-dasharray:none;stroke-dashoffset:0;stroke-opacity:1;paint-order:stroke fill markers" />
    <path
       style="opacity:1;fill:none;fill-opacity:0.99526068;stroke:#000000;stroke-width:0.13229167;stroke-linecap:round;stroke-linejoin:round;stroke-miterlimit:4;stroke-dasharray:none;stroke-dashoffset:0;stroke-opacity:1;paint-order:stroke fill markers"
       d="m 23.283325,288.00416 -1e-6,1.05837 c 3e-6,0.3781 0.403437,0.72749 1.058334,0.91654 0.654899,0.18905 1.461767,0.18905 2.116666,0 0.654897,-0.18905 1.058331,-0.53844 1.058333,-0.91654 l 1e-6,-1.05837"
       id="ellipse1374"
       inkscape:connector-curvature="0"
       sodipodi:nodetypes="ccsscc" />
    <path
       sodipodi:nodetypes="ccsscc"
       inkscape:connector-curvature="0"
       id="path1399"
       d="m 23.283325,289.0625 -1e-6,1.05837 c 3e-6,0.3781 0.403437,0.72749 1.058334,0.91654 0.654899,0.18905 1.461767,0.18905 2.116666,0 0.654897,-0.18905 1.058331,-0.53844 1.058333,-0.91654 l 1e-6,-1.05837"
       style="opacity:1;fill:none;fill-opacity:0.99526068;stroke:#000000;stroke-width:0.13229167;stroke-linecap:round;stroke-linejoin:round;stroke-miterlimit:4;stroke-dasharray:none;stroke-dashoffset:0;stroke-opacity:1;paint-order:stroke fill markers" />
    <path
       style="opacity:1;fill:none;fill-opacity:0.99526068;stroke:#000000;stroke-width:0.13229167;stroke-linecap:round;stroke-linejoin:round;stroke-miterlimit:4;stroke-dasharray:none;stroke-dashoffset:0;stroke-opacity:1;paint-order:stroke fill markers"
       d="m 23.283325,290.12084 -1e-6,1.05837 c 3e-6,0.3781 0.403437,0.72749 1.058334,0.91654 0.654899,0.18905 1.461767,0.18905 2.116666,0 0.654897,-0.18905 1.058331,-0.53844 1.058333,-0.91654 l 1e-6,-1.05837"
       id="path1401"
       inkscape:connector-curvature="0"
       sodipodi:nodetypes="ccsscc" />
    <path
       sodipodi:type="star"
       style="opacity:1;fill:none;fill-opacity:0.99526068;stroke:#000000;stroke-width:0.13229167;stroke-linecap:round;stroke-linejoin:miter;stroke-miterlimit:4;stroke-dasharray:none;stroke-dashoffset:0;stroke-opacity:1;paint-order:stroke fill markers"
       id="path1120"
       sodipodi:sides="5"
       sodipodi:cx="28.045835"
       sodipodi:cy="286.41678"
       sodipodi:r1="1.0583333"
       sodipodi:r2="0.74835485"
       sodipodi:arg1="0"
       sodipodi:arg2="0.62831853"
       inkscape:flatsided="false"
       inkscape:rounded="0"
       inkscape:randomized="0"
       d="m 29.104169,286.41678 -0.452902,0.43987 -0.278389,0.56666 -0.558297,-0.2948 -0.624955,-0.0897 0.107855,-0.62207 -0.107855,-0.62207 0.624955,-0.0897 0.558297,-0.29481 0.278389,0.56667 z"
       inkscape:transform-center-x="-0.10106147" />
    <rect
       ry="1.0583189"
       y="270.01254"
       x="4.2333302"
       height="8.4666662"
       width="12.7"
       id="rect1429"
       style="opacity:1;fill:none;fill-opacity:0.99526068;stroke:#000000;stroke-width:0.13229167;stroke-linecap:round;stroke-linejoin:round;stroke-miterlimit:4;stroke-dasharray:none;stroke-dashoffset:0;stroke-opacity:1" />
    <rect
       style="opacity:1;fill:#000000;fill-opacity:1;stroke:none;stroke-width:0.13229167;stroke-linecap:round;stroke-linejoin:round;stroke-miterlimit:4;stroke-dasharray:none;stroke-dashoffset:0;stroke-opacity:1;paint-order:stroke fill markers"
       id="rect1507"
       width="1.0583334"
       height="0.5291667"
       x="8.9958324"
       y="286.01978"
       ry="0.26458335" />
    <rect
       ry="0.26458335"
       y="286.01978"
       x="11.112497"
       height="0.5291667"
       width="1.0583334"
       id="rect1509"
       style="opacity:1;fill:#000000;fill-opacity:1;stroke:none;stroke-width:0.13229167;stroke-linecap:round;stroke-linejoin:round;stroke-miterlimit:4;stroke-dasharray:none;stroke-dashoffset:0;stroke-opacity:1;paint-order:stroke fill markers" />
  </g>
</svg>
