<?xml version="1.0" encoding="UTF-8" standalone="no"?>
<!-- Created with Inkscape (http://www.inkscape.org/) -->

<svg
   xmlns:dc="http://purl.org/dc/elements/1.1/"
   xmlns:cc="http://creativecommons.org/ns#"
   xmlns:rdf="http://www.w3.org/1999/02/22-rdf-syntax-ns#"
   xmlns:svg="http://www.w3.org/2000/svg"
   xmlns="http://www.w3.org/2000/svg"
   xmlns:sodipodi="http://sodipodi.sourceforge.net/DTD/sodipodi-0.dtd"
   xmlns:inkscape="http://www.inkscape.org/namespaces/inkscape"
   width="1280"
   height="720"
   viewBox="0 0 338.66665 190.50001"
   version="1.1"
   id="svg8"
   inkscape:version="0.92.2 5c3e80d, 2017-08-06"
   sodipodi:docname="ludos-bg.svg"
   inkscape:export-filename="/Users/kivutar/Pictures/splash-720.png"
   inkscape:export-xdpi="96"
   inkscape:export-ydpi="96">
  <defs
     id="defs2" />
  <sodipodi:namedview
     id="base"
     pagecolor="#000000"
     bordercolor="#666666"
     borderopacity="1.0"
     inkscape:pageopacity="1"
     inkscape:pageshadow="2"
     inkscape:zoom="0.6015625"
     inkscape:cx="893.50649"
     inkscape:cy="606.49351"
     inkscape:document-units="px"
     inkscape:current-layer="layer1"
     showgrid="true"
     units="px"
     inkscape:window-width="1680"
     inkscape:window-height="925"
     inkscape:window-x="0"
     inkscape:window-y="1"
     inkscape:window-maximized="1"
     inkscape:pagecheckerboard="true">
    <inkscape:grid
       type="xygrid"
       id="grid815"
       empspacing="4"
       spacingy="0.26458334"
       spacingx="0.26458334" />
  </sodipodi:namedview>
  <metadata
     id="metadata5">
    <rdf:RDF>
      <cc:Work
         rdf:about="">
        <dc:format>image/svg+xml</dc:format>
        <dc:type
           rdf:resource="http://purl.org/dc/dcmitype/StillImage" />
        <dc:title></dc:title>
      </cc:Work>
    </rdf:RDF>
  </metadata>
  <g
     inkscape:label="Layer 1"
     inkscape:groupmode="layer"
     id="layer1"
     transform="translate(0,-106.49999)">
    <g
       id="g852"
       transform="matrix(2.0000001,0,0,2.0000001,135.46667,-358.38337)">
      <rect
         y="263.13333"
         x="0"
         height="33.866665"
         width="33.866665"
         id="rect842"
         style="opacity:1;fill:#000000;fill-opacity:1;stroke:none;stroke-width:4.57649803;stroke-linecap:round;stroke-linejoin:round;stroke-miterlimit:4;stroke-dasharray:none;stroke-dashoffset:0;stroke-opacity:1" />
      <path
         inkscape:connector-curvature="0"
         id="path817"
         d="m 18.931661,271.89248 c -1.471073,0.7363 -2.264541,1.90991 -2.263945,3.41167 -1.322567,-10e-5 -2.636599,-0.1933 -3.967716,-0.52916 -2.116667,0 -3.4395834,0.79375 -3.7041668,2.11666 0,0 -1.0583336,4.58728 -1.0583333,5.82084 5e-7,1.23356 0.7937503,1.85208 1.5875,2.11666 1.5875011,0.52917 2.3812501,-0.79374 3.4395831,-1.85208 h 3.96875 3.96875 c 1.058333,1.05834 1.852082,2.38125 3.439583,1.85208 0.79375,-0.26458 1.5875,-0.8831 1.5875,-2.11666 0,-0.0561 -0.0046,-0.12619 -0.0088,-0.19534 -1.114793,-0.15556 -2.402637,-0.63074 -3.532084,-1.55236 a 1.5874998,1.5874998 0 0 1 -0.692465,0.1602 1.5874998,1.5874998 0 0 1 -1.5875,-1.5875 1.5874998,1.5874998 0 0 1 0.376205,-1.02578 c -0.445233,-0.95118 -0.727675,-2.09037 -0.765845,-3.42977 -0.84116,0.14336 -1.679299,0.22221 -2.520777,0.22221 h -5.29e-4 c -5.29e-4,-1.32464 0.625048,-2.26543 1.970422,-2.93884 z m 2.235005,2.88251 c -0.219553,0.0554 -0.438585,0.10555 -0.657324,0.15296 0.01819,1.23909 0.252301,2.26975 0.629936,3.12384 a 1.5874998,1.5874998 0 0 1 0.556555,-0.1018 1.5874998,1.5874998 0 0 1 1.5875,1.5875 1.5874998,1.5874998 0 0 1 -0.282153,0.90278 c 0.905209,0.7031 1.933657,1.09772 2.823083,1.25884 -0.261587,-1.79682 -0.95343,-4.80746 -0.95343,-4.80746 -0.264584,-1.32291 -1.587501,-2.11666 -3.704167,-2.11666 z m -9.260416,3.70365 h 0.529167 v 0.79478 h 0.793233 v 0.52917 c -0.264066,-5.3e-4 -0.528822,0 -0.793233,0 v 0.79323 H 11.90625 v -0.79323 h -0.792717 v -0.52917 h 0.792717 z m 9.789583,5.1e-4 a 0.26458331,0.26458331 0 0 0 -0.264583,0.26459 0.26458331,0.26458331 0 0 0 0.264583,0.26458 0.26458331,0.26458331 0 0 0 0.264583,-0.26458 0.26458331,0.26458331 0 0 0 -0.264583,-0.26459 z m -0.79375,0.79375 a 0.26458331,0.26458331 0 0 0 -0.264583,0.26459 0.26458331,0.26458331 0 0 0 0.264583,0.26458 0.26458331,0.26458331 0 0 0 0.264583,-0.26458 0.26458331,0.26458331 0 0 0 -0.264583,-0.26459 z m 1.5875,0 a 0.26458331,0.26458331 0 0 0 -0.264583,0.26459 0.26458331,0.26458331 0 0 0 0.264583,0.26458 0.26458331,0.26458331 0 0 0 0.264583,-0.26458 0.26458331,0.26458331 0 0 0 -0.264583,-0.26459 z m -6.438883,0.59635 c 0.288923,0.25919 0.568559,0.38467 0.847493,0.39067 0.01146,2.6e-4 0.0236,-0.003 0.03514,-0.003 0.01154,1.5e-4 0.02368,0.003 0.03514,0.003 0.278934,-0.006 0.558571,-0.13148 0.847494,-0.39067 l 0.351399,0.39429 c -0.354917,0.3184 -0.756981,0.51348 -1.187524,0.52348 -0.01548,3.7e-4 -0.03102,-10e-4 -0.04651,-0.002 -0.01549,1.3e-4 -0.03103,0.002 -0.04651,0.002 -0.430543,-0.01 -0.832607,-0.20508 -1.187524,-0.52348 z m 5.645133,0.1974 a 0.26458331,0.26458331 0 0 0 -0.264583,0.26459 0.26458331,0.26458331 0 0 0 0.264583,0.26458 0.26458331,0.26458331 0 0 0 0.264583,-0.26458 0.26458331,0.26458331 0 0 0 -0.264583,-0.26459 z"
         style="opacity:1;fill:#ffffff;fill-opacity:1;stroke:none;stroke-width:0.26458332px;stroke-linecap:butt;stroke-linejoin:miter;stroke-opacity:1" />
    </g>
    <rect
       style="fill:#ffffff;fill-opacity:1;stroke:none;stroke-width:0.26458332;stroke-opacity:1"
       id="rect835"
       width="0"
       height="25.400009"
       x="16.933332"
       y="267.36667" />
  </g>
</svg>
