<?xml version="1.0" encoding="UTF-8" standalone="no"?>
<!-- Created with Inkscape (http://www.inkscape.org/) -->

<svg
   xmlns:dc="http://purl.org/dc/elements/1.1/"
   xmlns:cc="http://creativecommons.org/ns#"
   xmlns:rdf="http://www.w3.org/1999/02/22-rdf-syntax-ns#"
   xmlns:svg="http://www.w3.org/2000/svg"
   xmlns="http://www.w3.org/2000/svg"
   xmlns:sodipodi="http://sodipodi.sourceforge.net/DTD/sodipodi-0.dtd"
   xmlns:inkscape="http://www.inkscape.org/namespaces/inkscape"
   width="64"
   height="64"
   viewBox="0 0 16.933333 16.933333"
   version="1.1"
   id="svg8"
   inkscape:version="0.92.2 5c3e80d, 2017-08-06"
   sodipodi:docname="pad.svg"
   inkscape:export-filename="/Users/kivutar/Desktop/pad.png"
   inkscape:export-xdpi="1536"
   inkscape:export-ydpi="1536">
  <defs
     id="defs2" />
  <sodipodi:namedview
     id="base"
     pagecolor="#ffffff"
     bordercolor="#666666"
     borderopacity="1.0"
     inkscape:pageopacity="0.0"
     inkscape:pageshadow="2"
     inkscape:zoom="32.000001"
     inkscape:cx="25.340189"
     inkscape:cy="34.968849"
     inkscape:document-units="mm"
     inkscape:current-layer="layer1"
     showgrid="true"
     units="px"
     showguides="false"
     inkscape:window-width="1680"
     inkscape:window-height="925"
     inkscape:window-x="0"
     inkscape:window-y="1"
     inkscape:window-maximized="1">
    <inkscape:grid
       type="xygrid"
       id="grid815"
       spacingx="0.26458333"
       spacingy="0.26458333"
       empspacing="4" />
  </sodipodi:namedview>
  <metadata
     id="metadata5">
    <rdf:RDF>
      <cc:Work
         rdf:about="">
        <dc:format>image/svg+xml</dc:format>
        <dc:type
           rdf:resource="http://purl.org/dc/dcmitype/StillImage" />
        <dc:title />
      </cc:Work>
    </rdf:RDF>
  </metadata>
  <g
     inkscape:label="Layer 1"
     inkscape:groupmode="layer"
     id="layer1"
     transform="translate(0,-280.06667)">
    <circle
       style="fill:#92ad83;fill-opacity:1;stroke:none;stroke-width:0.26499999;stroke-linecap:round;stroke-linejoin:bevel;stroke-miterlimit:4;stroke-dasharray:none;stroke-opacity:1"
       id="path1441"
       cx="8.4666662"
       cy="288.53333"
       r="7.4083333" />
    <rect
       style="fill:#000000;fill-opacity:0.2745098;stroke:none;stroke-width:0.15677357;stroke-linecap:round;stroke-linejoin:bevel;stroke-miterlimit:4;stroke-dasharray:none;stroke-opacity:1"
       id="rect1377"
       width="10.583333"
       height="0.37040466"
       x="3.7041667"
       y="291.17917"
       ry="0.18520233"
       rx="0.79375005" />
    <path
       sodipodi:nodetypes="sscccccccsccsccsccs"
       inkscape:connector-curvature="0"
       id="path1419"
       d="m 5.0270833,286.15209 c -0.79375,0 -1.7760191,2.91315 -1.8520833,3.96875 -0.079002,1.09637 0.5291666,1.32291 1.0583333,1.32291 0.2645833,0 0.2645833,0 0.5291666,0 0.79375,0 1.3229167,-1.32291 1.3229167,-1.32291 h 4.7625004 c 0,0 0.529166,1.32291 1.322916,1.32291 0.264584,0 0.264584,0 0.529167,0 0.529166,0 1.137333,-0.22654 1.058333,-1.32291 -0.07606,-1.0556 -1.058333,-3.96875 -1.852083,-3.96875 h -0.529167 -0.661458 -0.529167 c -0.2645829,0 -0.3968748,0.26458 -0.3968748,0.26458 H 7.1437499 c 0,0 -0.1322919,-0.26458 -0.396875,-0.26458 H 6.2177082 5.5562499 Z"
       style="fill:#cccccc;fill-opacity:1;stroke:none;stroke-width:0.26458332px;stroke-linecap:butt;stroke-linejoin:miter;stroke-opacity:1" />
    <path
       style="fill:#ffffff;fill-opacity:1;stroke:none;stroke-width:0.26458332px;stroke-linecap:butt;stroke-linejoin:miter;stroke-opacity:1"
       d="m 5.0340483,286.01833 c -0.79375,0 -1.776019,2.91315 -1.8520833,3.96875 -0.079002,1.09637 0.5291667,1.32292 1.0583333,1.32292 0.79375,0 1.3226667,-1.323 1.3226667,-1.323 l 5.291917,8e-5 c 0,0 0.529167,1.32292 1.322917,1.32292 0.529166,0 1.137333,-0.22655 1.058333,-1.32292 -0.07606,-1.0556 -1.058333,-3.96875 -1.852083,-3.96875 h -1.190626 c -0.264583,0 -0.3968747,0.26458 -0.3968747,0.26458 h -3.175 c 0,0 -0.1322919,-0.26458 -0.396875,-0.26458 z"
       id="path1265"
       inkscape:connector-curvature="0"
       sodipodi:nodetypes="sssccscssccss" />
    <path
       style="fill:none;fill-opacity:1;stroke:#000000;stroke-width:0.2651125;stroke-linecap:butt;stroke-linejoin:miter;stroke-opacity:1;stroke-miterlimit:4;stroke-dasharray:none"
       d="m 5.0270833,286.15209 c -0.79375,0 -1.7760191,2.91315 -1.8520833,3.96875 -0.079002,1.09637 0.5291666,1.32291 1.0583333,1.32291 0.2645833,0 0.2645833,0 0.5291666,0 0.79375,0 1.3229167,-1.32291 1.3229167,-1.32291 h 4.7625004 c 0,0 0.529166,1.32291 1.322916,1.32291 0.264584,0 0.264584,0 0.529167,0 0.529166,0 1.137333,-0.22654 1.058333,-1.32291 -0.07606,-1.0556 -1.058333,-3.96875 -1.852083,-3.96875 h -0.529167 -0.661458 -0.529167 c -0.2645829,0 -0.3968748,0.26458 -0.3968748,0.26458 H 7.1437499 c 0,0 -0.1322919,-0.26458 -0.396875,-0.26458 H 6.2177082 5.5562499 Z"
       id="path1326"
       inkscape:connector-curvature="0"
       sodipodi:nodetypes="sscccccccsccsccsccs" />
    <path
       style="fill:#000000;fill-opacity:1;stroke:none;stroke-width:1.32300007;stroke-miterlimit:4;stroke-dasharray:none;stroke-opacity:1"
       d="m 5.55625,287.21043 c -0.4030284,0 -0.73044,0.29859 -0.7828978,0.68678 -0.00703,0.0345 -0.010852,0.0703 -0.010852,0.10697 v 0.79375 0.26459 c 0,0.29315 0.2360086,0.52916 0.5291667,0.52916 0.044666,0 0.087294,-0.007 0.1286743,-0.0176 0.00984,0.002 0.018974,0.005 0.028939,0.007 -0.00894,-0.002 -0.017067,-0.005 -0.025838,-0.008 0.2285799,-0.0586 0.3973917,-0.26322 0.3973917,-0.51056 v -1.05834 c 0,-0.24716 -0.1685417,-0.45184 -0.396875,-0.51056 0.04249,-0.0109 0.086298,-0.0186 0.1322917,-0.0186 0.2931581,0 0.5291667,0.23601 0.5291667,0.52916 v 1.05834 c 0,0.25651 -0.18063,0.46913 -0.4221965,0.51831 0.388197,-0.0525 0.6867798,-0.37987 0.6867798,-0.7829 v -0.79375 c 0,-0.43974 -0.3540125,-0.79375 -0.7937506,-0.79375 z"
       id="rect841"
       inkscape:connector-curvature="0" />
    <path
       id="path934"
       d="m 10.31875,287.21043 c -0.4030287,0 -0.7304397,0.29859 -0.7828977,0.68678 -0.007,0.0345 -0.01085,0.0703 -0.01085,0.10697 v 0.79375 0.26459 c 0,0.29315 0.236009,0.52916 0.5291667,0.52916 0.04467,0 0.08729,-0.007 0.128674,-0.0176 0.0098,0.002 0.01897,0.005 0.02894,0.007 -0.0089,-0.002 -0.01707,-0.005 -0.02584,-0.008 0.22858,-0.0586 0.397392,-0.26322 0.397392,-0.51056 v -1.05834 c 0,-0.24716 -0.168542,-0.45184 -0.396875,-0.51056 0.04249,-0.0109 0.0863,-0.0186 0.132292,-0.0186 0.293158,0 0.529167,0.23601 0.529167,0.52916 v 1.05834 c 0,0.25651 -0.18063,0.46913 -0.422197,0.51831 0.388197,-0.0525 0.68678,-0.37987 0.68678,-0.7829 v -0.79375 c 0,-0.43974 -0.354012,-0.79375 -0.793752,-0.79375 z"
       style="fill:#000000;fill-opacity:1;stroke:none;stroke-width:1.32300007;stroke-miterlimit:4;stroke-dasharray:none;stroke-opacity:1"
       inkscape:connector-curvature="0" />
    <path
       style="fill:none;stroke:#000000;stroke-width:0.21719097;stroke-linecap:round;stroke-linejoin:bevel;stroke-miterlimit:4;stroke-dasharray:none;stroke-opacity:1"
       d="m 7.428134,288.77513 c 0,0.53318 0.5291701,0.53318 0.5291701,0 0,0.53318 0.52916,0.53318 0.52916,0"
       id="path1079"
       inkscape:connector-curvature="0"
       sodipodi:nodetypes="ccc" />
    <path
       style="fill:none;stroke:#000000;stroke-width:0.26499999;stroke-linecap:round;stroke-linejoin:miter;stroke-miterlimit:4;stroke-dasharray:none;stroke-opacity:1"
       d="m 8.2020832,286.41667 c 0,-1.05833 -0.5291667,-2.11667 -1.3229167,-2.11667"
       id="path1331"
       inkscape:connector-curvature="0"
       sodipodi:nodetypes="cc" />
  </g>
</svg>
